<?xml version="1.0" encoding="UTF-8" standalone="no"?>
<!-- Creator: CorelDRAW 2019 (64-Bit) -->

<svg
   xml:space="preserve"
   width="210mm"
   height="297mm"
   version="1.1"
   style="shape-rendering:geometricPrecision; text-rendering:geometricPrecision; image-rendering:optimizeQuality; fill-rule:evenodd; clip-rule:evenodd"
   viewBox="0 0 21000 29700"
   id="svg24"
   sodipodi:docname="Logo wektorowe uproszczone.svg"
   inkscape:version="1.1 (c68e22c387, 2021-05-23)"
   xmlns:inkscape="http://www.inkscape.org/namespaces/inkscape"
   xmlns:sodipodi="http://sodipodi.sourceforge.net/DTD/sodipodi-0.dtd"
   xmlns="http://www.w3.org/2000/svg"
   xmlns:svg="http://www.w3.org/2000/svg"><sodipodi:namedview
   id="namedview26"
   pagecolor="#ffffff"
   bordercolor="#666666"
   borderopacity="1.0"
   inkscape:pageshadow="2"
   inkscape:pageopacity="0.0"
   inkscape:pagecheckerboard="0"
   inkscape:document-units="mm"
   showgrid="false"
   inkscape:zoom="1.4467452"
   inkscape:cx="393.98782"
   inkscape:cy="562.29665"
   inkscape:window-width="1920"
   inkscape:window-height="1001"
   inkscape:window-x="-9"
   inkscape:window-y="-9"
   inkscape:window-maximized="1"
   inkscape:current-layer="Layer_x0020_1"><inkscape:grid
     type="xygrid"
     id="grid11213" /></sodipodi:namedview>
 <defs
   id="defs4">
  <style
   type="text/css"
   id="style2">
   <![CDATA[
    .str1 {stroke:#2B2A29;stroke-width:20;stroke-miterlimit:22.9256}
    .str0 {stroke:#828282;stroke-width:176.39;stroke-miterlimit:22.9256}
    .fil0 {fill:none}
    .fil3 {fill:#FEFEFE}
    .fil5 {fill:#2B2A29}
    .fil4 {fill:#2B2A29}
    .fil1 {fill:#A60000}
    .fil2 {fill:#F69808}
    .fil7 {fill:#2B2A29;fill-rule:nonzero}
    .fil6 {fill:#2B2A29;fill-rule:nonzero}
   ]]>
  </style>
 </defs>
 <g
   id="Layer_x0020_1"
   inkscape:label="Layer 1">
  <metadata
   id="CorelCorpID_0Corel-Layer" />
  
  
  
  <rect
   class="fil3"
   x="5910.2471"
   y="16387.121"
   width="161.90221"
   height="263.56186"
   id="rect13"
   ry="0"
   rx="80.951103" />
  <path
   class="fil4 str1"
   d="M2141.51 15224.9l3429.02 0 0 185.21 -3429.02 0 0 -185.21zm12192.01 21.16l3429.02 0 0 185.21 -3429.02 0 0 -185.21z"
   id="path15" />
  
  <path
   class="fil6"
   d="M4114.32 18810.88l133.42 0 0 -817.83 -97.95 0c-84.44,0 -143.48,22.74 -177.13,68.43 -25.86,35.32 -40.73,93.8 -44.85,175.42l-52.17 0 0 -289.53 925.93 0 0 289.53 -52.4 0c-4.13,-81.62 -19.23,-140.1 -45.55,-175.42 -33.18,-45.69 -92,-68.43 -176.44,-68.43l-97.72 0 0 817.83 133.42 0 0 46.5 -448.56 0 0 -46.5zm861.42 -179.28c-18.77,-34.72 -32.96,-71.47 -42.57,-110.65 -9.61,-38.98 -14.42,-78.37 -14.42,-118.37 0,-39.8 4.81,-78.78 14.42,-117.15 9.61,-38.18 23.8,-74.72 42.57,-109.24 18.77,-34.31 42.34,-66.39 70.72,-95.63 28.37,-29.44 61.33,-54.82 98.86,-76.14 79.63,-46.09 173.24,-69.03 281.03,-69.03 163.63,0 291.56,48.32 384.25,145.17 82.61,87.1 124.03,194.1 124.03,320.6 0,130.35 -41.87,239.38 -125.4,326.48 -57.22,59.49 -132.51,100.71 -226.11,123.85 -47.38,11.78 -99.33,17.87 -155.85,17.87 -56.53,0 -108.26,-5.89 -155.17,-17.67 -46.91,-11.57 -89.25,-28.01 -126.78,-49.13 -37.53,-20.91 -70.49,-46.09 -98.86,-75.12 -28.38,-29.24 -51.95,-61.12 -70.72,-95.84zm449.24 188.22c38.45,0 72.77,-5.89 102.99,-17.67 30.2,-11.98 56.75,-28.22 80.09,-48.93 23.11,-20.5 43.25,-44.46 60.42,-71.87 16.93,-27.41 30.67,-56.65 41.42,-88.12 21.06,-60.71 31.58,-116.34 31.58,-166.9 0,-50.55 -2.52,-92.78 -7.77,-126.69 -5.04,-33.91 -13.06,-66.19 -24.03,-96.85 -10.99,-30.86 -24.95,-59.49 -41.89,-85.88 -17.17,-26.6 -37.3,-49.95 -60.42,-69.65 -49.66,-41.62 -110.07,-62.53 -181.02,-62.53 -110.76,0 -193.38,44.06 -247.4,132.18 -46,75.73 -68.41,170.34 -67.05,284.25 1.84,111.06 24.95,204.45 69.8,280.19 55.39,92.38 136.4,138.47 243.28,138.47zm643.07 -8.94l127.47 0 0.47 -817.22 -127.94 0 0 -46.29 445.81 0 0 46.29 -137.31 0 0 433.08 502.1 -433.08 -118.08 0 0 -46.29 299.8 0 0 46.29 -98.64 0 -378.76 326.08 445.13 491.14 90.62 0 0 46.5 -415.83 0 0 -46.5 101.39 0 -338.71 -390.03 -89.02 77.16 0 312.87 137.31 0 0 46.5 -445.81 0 0 -46.5zm1199.43 -817.22l-91.77 0 0 -46.29 370.06 0 0 46.29 -97.95 0 0 539.47c0,146.39 48.28,235.12 144.86,265.98 30.89,9.95 60.65,14.82 89.48,14.82 28.84,0 54.02,-1.22 75.52,-3.45 21.52,-2.44 42.8,-7.11 64.32,-14.01 21.5,-6.9 42.33,-16.85 62.24,-29.44 20.14,-12.79 38,-29.44 53.1,-49.95 33.87,-45.28 51.03,-106.19 51.03,-182.73l0 -540.69 -120.15 0 0 -46.29 277.6 0 0 46.29 -91.77 0 0 549.01c0,109.85 -34.79,192.89 -103.89,249.33 -63.63,51.57 -150.83,77.36 -261.58,77.36 -100.93,0 -187.44,-17.87 -259.53,-53.6 -64.77,-32.08 -111.22,-84.06 -139.37,-155.93 -14.88,-37.16 -22.2,-82.23 -22.2,-135.02l0 -531.15zm1447.05 817.22l115.11 0 0 -817.22 -114.66 0 0 -46.29 408.51 0c138.91,0 243.5,26.39 313.76,79.59 63.39,48.32 95.2,116.34 95.2,204.05 0,97.46 -33.64,174.82 -100.69,232.07 -71.87,60.51 -173.71,90.96 -305.76,90.96l-115.8 0 0 256.84 169.58 0 0 46.5 -465.25 0 0 -46.5zm396.15 -297.85c83.52,0 146,-32.49 186.97,-97.05 31.81,-51.17 47.6,-110.66 47.6,-178.47 0,-114.92 -43.03,-190.25 -129.31,-225.98 -29.06,-11.98 -63.62,-17.87 -103.9,-17.87l-101.84 0 0 519.37 100.48 0zm527.73 297.85l108.48 0 0 -817.22 -108.48 0 0 -46.29 435.05 0c188.57,0 308.49,40.61 359.53,121.82 18.76,29.85 28.14,64.36 28.14,103.55 0,39.19 -6.86,73.5 -20.13,102.53 -13.5,29.24 -32.04,54.62 -55.61,76.55 -47.38,43.65 -110.99,71.87 -190.41,85.07 105.05,14.21 177.37,60.1 217.18,137.25 11.67,21.93 21.51,43.66 29.53,65.58l23.34 64.16c15.78,44.88 36.16,75.74 61.79,92.79 14.18,9.54 32.95,14.21 56.29,14.21l10.08 0 1.36 46.5 -89.93 0c-79.19,0 -133.65,-9.95 -163.63,-29.85 -18.31,-12.18 -33.41,-29.64 -45.31,-52.18 -11.68,-22.74 -21.52,-47.1 -29.07,-73.29 -7.55,-26.19 -14.19,-47.92 -19.68,-65.38 -5.72,-17.46 -12.59,-34.72 -20.6,-51.98 -8.01,-17.26 -17.62,-33.91 -28.83,-49.74 -11.21,-15.84 -24.49,-29.65 -40.28,-41.62 -35.25,-27.01 -77.59,-40.41 -127.25,-40.41l-102.52 0 0 357.95 156.76 0 0 46.5 -445.8 0 0 -46.5zm422.92 -401.4c81.01,0 138.46,-25.18 172.33,-75.53 25.17,-36.14 37.76,-85.88 37.76,-149.43 0,-60.91 -14.42,-106.39 -43.02,-136.04 -35.25,-36.54 -94.98,-54.82 -178.97,-54.82l-121.98 0 0 415.82 133.88 0zm641.02 222.12c-18.76,-34.72 -32.95,-71.47 -42.57,-110.65 -9.6,-38.98 -14.41,-78.37 -14.41,-118.37 0,-39.8 4.81,-78.78 14.41,-117.15 9.62,-38.18 23.81,-74.72 42.57,-109.24 18.77,-34.31 42.34,-66.39 70.72,-95.63 28.37,-29.44 61.33,-54.82 98.86,-76.14 79.64,-46.09 173.25,-69.03 281.04,-69.03 163.63,0 291.56,48.32 384.25,145.17 82.6,87.1 124.03,194.1 124.03,320.6 0,130.35 -41.88,239.38 -125.41,326.48 -57.21,59.49 -132.51,100.71 -226.11,123.85 -47.37,11.78 -99.32,17.87 -155.85,17.87 -56.53,0 -108.25,-5.89 -155.16,-17.67 -46.92,-11.57 -89.25,-28.01 -126.79,-49.13 -37.53,-20.91 -70.49,-46.09 -98.86,-75.12 -28.38,-29.24 -51.95,-61.12 -70.72,-95.84zm449.24 188.22c38.45,0 72.77,-5.89 102.99,-17.67 30.21,-11.98 56.75,-28.22 80.1,-48.93 23.1,-20.5 43.25,-44.46 60.41,-71.87 16.93,-27.41 30.67,-56.65 41.43,-88.12 21.05,-60.71 31.58,-116.34 31.58,-166.9 0,-50.55 -2.53,-92.78 -7.78,-126.69 -5.04,-33.91 -13.05,-66.19 -24.03,-96.85 -10.99,-30.86 -24.94,-59.49 -41.88,-85.88 -17.17,-26.6 -37.3,-49.95 -60.42,-69.65 -49.66,-41.62 -110.08,-62.53 -181.02,-62.53 -110.77,0 -193.39,44.06 -247.4,132.18 -46,75.73 -68.42,170.34 -67.06,284.25 1.84,111.06 24.96,204.45 69.81,280.19 55.39,92.38 136.4,138.47 243.27,138.47zm654.52 226.79c27.23,-11.17 48.51,-26.6 64.08,-46.5 15.33,-19.89 26.54,-45.88 33.64,-78.57 11.22,-47.92 16.93,-144.77 16.93,-290.75l0 -637.13 -126.09 0 0 -46.29 439.17 0 0 46.29 -132.05 0 0 783.32c0,85.68 -27,156.54 -81.24,212.37 -47.37,48.94 -109.63,82.44 -186.97,100.71l-27.47 -43.45zm561.15 -236.13l127.47 0 0.47 -816.82 -127.94 0 0 -46.29 852.26 0 0 259.28 -52.41 0c-2.29,-32.89 -5.27,-62.13 -9.38,-87.71 -4.13,-25.59 -12.59,-47.31 -25.41,-65.18 -26.09,-36.55 -78.72,-56.44 -158.36,-60.1l-298.2 0 0 358.77 180.34 0c37.99,0 67.04,-5.48 87.42,-16.45 20.37,-10.96 32.72,-30.05 37.3,-57.46 0.91,-7.92 1.6,-16.24 2.29,-25.17 0.69,-8.94 1.37,-17.87 2.29,-26.4l56.3 0 0 296.03 -56.3 0c-0.92,-8.94 -1.6,-17.67 -2.29,-25.99 -0.69,-8.32 -1.38,-16.45 -2.29,-24.57 -4.58,-27.2 -17.17,-46.49 -37.99,-57.25 -20.82,-10.97 -49.66,-16.45 -86.73,-16.45l-180.34 0 0 412.16 286.76 0c117.62,0 189.03,-48.12 213.97,-144.35 7.09,-27.82 11.9,-56.45 14.18,-85.69l52.19 0 0 276.54 -875.6 0 0 -46.9zm1028.48 0.4l127.47 0 0.46 -817.22 -127.93 0 0 -46.29 445.8 0 0 46.29 -137.31 0 0 433.08 502.1 -433.08 -118.08 0 0 -46.29 299.8 0 0 46.29 -98.64 0 -378.75 326.08 445.12 491.14 90.62 0 0 46.5 -415.83 0 0 -46.5 101.39 0 -338.71 -390.03 -89.02 77.16 0 312.87 137.31 0 0 46.5 -445.8 0 0 -46.5zm1367.17 0l133.42 0 0 -817.83 -97.95 0c-84.45,0 -143.49,22.74 -177.13,68.43 -25.86,35.32 -40.74,93.8 -44.85,175.42l-52.18 0 0 -289.53 925.94 0 0 289.53 -52.4 0c-4.13,-81.62 -19.23,-140.1 -45.55,-175.42 -33.18,-45.69 -92,-68.43 -176.45,-68.43l-97.71 0 0 817.83 133.42 0 0 46.5 -448.56 0 0 -46.5z"
   id="path19" />
  
 <path
   style="fill:#f69808;fill-opacity:1;stroke-width:0.691207"
   d="m 348.36818,550.91606 v -21.45173 h 12.47304 12.47304 l -0.46518,2.59203 c -2.19225,12.21531 -8.62149,24.71279 -17.7133,34.43195 -7.33001,7.83581 -6.7676,9.12991 -6.7676,-15.57225 z"
   id="path4252"
   transform="scale(26.458333)" /><path
   style="fill:#f69808;fill-opacity:1;stroke-width:0.691207"
   d="m 348.82253,563.16066 c -0.24643,-4.27684 -0.44948,-13.60813 -0.45121,-20.7362 l -0.003,-12.96013 h 12.09612 c 12.08837,0 12.09611,10e-4 12.09611,1.55742 0,5.02487 -5.75707,18.97418 -11.04408,26.75965 -2.90579,4.27895 -10.82677,13.15534 -11.73938,13.15534 -0.27849,0 -0.70798,-3.49924 -0.95442,-7.77608 z"
   id="path4369"
   transform="scale(26.458333)" /><circle
   style="fill:#a60000;fill-opacity:1"
   id="path5778"
   cy="13734.421"
   cx="8156.5269"
   r="1810.5294" /><path
   style="fill:#f69808;fill-opacity:1"
   id="path5780"
   sodipodi:type="arc"
   sodipodi:cx="10423.122"
   sodipodi:cy="15346.282"
   sodipodi:rx="2276.8782"
   sodipodi:ry="2286.022"
   sodipodi:start="0"
   sodipodi:end="6.2829886"
   sodipodi:arc-type="slice"
   d="M 12700,15346.282 A 2276.8782,2286.022 0 0 1 10423.234,17632.304 2276.8782,2286.022 0 0 1 8146.2439,15346.507 2276.8782,2286.022 0 0 1 10422.786,13060.26 2276.8782,2286.022 0 0 1 12700,15345.833 l -2276.878,0.449 z" /></g>
</svg>
